      <svg  className="h-14 w-14 rounded-[35%] shadow-md" xmlns="http://www.w3.org/2000/svg" xmlns:xlink="http://www.w3.org/1999/xlink" width="500" zoomAndPan="magnify" viewBox="0 0 375 374.999991" height="500" preserveAspectRatio="xMidYMid meet" version="1.0"><defs><g/></defs><rect x="-37.5" width="450"  y="-37.499999" height="449.999989" fill-opacity="1"/><rect x="-37.5" width="450" " y="-37.499999" height="449.999989" fill-opacity="1"/><path fill="#242424" d="M 142.832031 88.914062 C 147.78125 88.914062 151.800781 84.894531 151.800781 79.945312 L 151.800781 62.582031 C 151.800781 40.121094 170.097656 21.824219 192.628906 21.824219 C 215.15625 21.824219 233.453125 40.121094 233.453125 62.582031 L 233.453125 79.945312 C 233.453125 84.894531 237.472656 88.914062 242.421875 88.914062 C 247.375 88.914062 251.390625 84.894531 251.390625 79.945312 L 251.390625 65.019531 C 251.390625 33.664062 227.855469 6.113281 196.5 4.03125 C 162.417969 1.804688 133.863281 28.929688 133.863281 62.582031 L 133.863281 79.945312 C 133.863281 84.894531 137.878906 88.914062 142.832031 88.914062 Z M 142.832031 88.914062 " fill-opacity="1" fill-rule="nonzero"/><path fill="#ffb929" d="M 331.46875 322.105469 L 311.734375 130.171875 C 310.15625 114.886719 297.3125 103.335938 281.957031 103.335938 L 103.296875 103.335938 C 87.941406 103.335938 75.097656 114.957031 73.519531 130.171875 L 68.570312 177.957031 C 65.269531 210.03125 95.761719 235.070312 126.542969 225.671875 L 143.261719 220.578125 C 162.277344 214.765625 183.515625 224.378906 190.976562 245.476562 C 193.558594 252.792969 193.203125 260.832031 190.90625 268.292969 L 183.515625 292.402344 C 173.324219 325.695312 198.222656 359.34375 233.023438 359.34375 L 297.886719 359.34375 C 317.90625 359.273438 333.546875 341.980469 331.46875 322.105469 Z M 331.46875 322.105469 " fill-opacity="1" fill-rule="nonzero"/><path fill="#242424" d="M 149.578125 241.097656 L 52.925781 270.589844 C 38.863281 274.894531 37.859375 294.410156 51.417969 300.148438 L 74.453125 309.835938 C 86.648438 315.003906 96.40625 324.6875 101.574219 336.957031 L 111.261719 359.992188 C 117 373.550781 136.515625 372.546875 140.824219 358.484375 L 170.3125 261.835938 C 174.257812 249.132812 162.347656 237.222656 149.578125 241.097656 Z M 149.578125 241.097656 " fill-opacity="1" fill-rule="nonzero"/><g fill="#000000" fill-opacity="1"><g transform="translate(125.197746, 282.038242)"><g><path d="M 0.609375 0.171875 C 0.441406 0.171875 0.296875 0.113281 0.171875 0 C 0.0546875 -0.125 0 -0.269531 0 -0.4375 C 0 -0.601562 0.0546875 -0.742188 0.171875 -0.859375 C 0.296875 -0.984375 0.441406 -1.046875 0.609375 -1.046875 C 0.773438 -1.046875 0.914062 -0.984375 1.03125 -0.859375 C 1.15625 -0.742188 1.21875 -0.601562 1.21875 -0.4375 C 1.21875 -0.269531 1.15625 -0.125 1.03125 0 C 0.914062 0.113281 0.773438 0.171875 0.609375 0.171875 Z M 0.609375 0.171875 "/></g></g></g></svg>
